<svg xmlns="http://www.w3.org/2000/svg" viewBox="0 0 121.68 139.61"><defs><style>.cls-1{isolation:isolate;}.cls-2{fill:#f2f2f2;}.cls-3{fill:#1f2125;}.cls-4{fill:#bfbfbf;}.cls-5{fill:#d9d9d9;}.cls-6{fill:#4d4d4d;}.cls-7{fill:#4a4a4a;}.cls-8{fill:#bdbdbd;mix-blend-mode:multiply;}.cls-9{fill:#006eff;}.cls-10{fill:#b3d4ff;}.cls-11{fill:#ffad66;}.cls-12{fill:#737373;}.cls-13{fill:#fff;}</style></defs><g class="cls-1"><g id="Capa_2" data-name="Capa 2"><g id="Layer"><path class="cls-2" d="M48.06,94.72,5.88,70.37c-.9-.52-.79-1.43.25-2L8.53,67a3.92,3.92,0,0,1,3.52-.14L54.23,91.15c.91.52.79,1.44-.25,2l-2.4,1.38A3.92,3.92,0,0,1,48.06,94.72Z"/><path class="cls-2" d="M116.6,110.73a1,1,0,0,1,0,1.85L70.77,139.22a3.52,3.52,0,0,1-3.19,0L.66,100.59a1,1,0,0,1,0-1.85L46.5,72.1a3.52,3.52,0,0,1,3.19,0Z"/><rect class="cls-3" x="104.81" y="100.77" width="1.79" height="2.5"/><g class="cls-1"><path class="cls-4" d="M112.91,107.6,70,132.54a3.28,3.28,0,0,1-3,0L4.36,96.37a1.06,1.06,0,0,1-.62-.87V99a1.07,1.07,0,0,0,.62.87L67,136.07a3.28,3.28,0,0,0,3,0l42.91-24.94a1,1,0,0,0,.61-.86v-3.53A1,1,0,0,1,112.91,107.6Z"/><path class="cls-2" d="M112.9,105.87a.91.91,0,0,1,0,1.73L70,132.54a3.28,3.28,0,0,1-3,0L4.36,96.37a.92.92,0,0,1,0-1.73L47.27,69.7a3.35,3.35,0,0,1,3,0Z"/></g><path class="cls-5" d="M85.27,119.88l-59.4-34.3c-.5-.29-.43-.78.13-1.11L48,71.76a2.17,2.17,0,0,1,1.92-.08L109.34,106c.49.29.43.78-.14,1.11l-22,12.71A2.14,2.14,0,0,1,85.27,119.88Z"/><path class="cls-4" d="M26,84.94l22-12.7a2.11,2.11,0,0,1,1.92-.08l59.41,34.3a.68.68,0,0,1,.26.24.51.51,0,0,0-.26-.72L49.93,71.68a2.17,2.17,0,0,0-1.92.08L26,84.47c-.42.25-.56.59-.4.86A1.07,1.07,0,0,1,26,84.94Z"/><path class="cls-5" d="M50.12,121.32,23,105.67c-.46-.27-.4-.74.13-1L39,95.48a2,2,0,0,1,1.81-.07l27.1,15.64c.46.27.41.74-.13,1l-15.84,9.14A2,2,0,0,1,50.12,121.32Z"/><path class="cls-4" d="M23.15,105.13,39,96a2,2,0,0,1,1.81-.07l27.1,15.64a.67.67,0,0,1,.23.21.49.49,0,0,0-.23-.71L40.8,95.41a2,2,0,0,0-1.81.07l-15.84,9.14c-.41.24-.54.58-.36.84A1.06,1.06,0,0,1,23.15,105.13Z"/><g class="cls-1"><path class="cls-3" d="M52.67,74.5l-2,1.12a.53.53,0,0,1-.49,0L47,73.75a.17.17,0,0,1-.1-.14V74a.17.17,0,0,0,.1.14L50.23,76a.53.53,0,0,0,.49,0l1.94-1.13c.07,0,.11-.09.11-.14v-.35A.2.2,0,0,1,52.67,74.5Z"/><path class="cls-6" d="M52.66,74.21c.14.08.14.21,0,.29l-2,1.12a.53.53,0,0,1-.49,0L47,73.75c-.13-.07-.13-.2,0-.28l1.94-1.13a.55.55,0,0,1,.5,0Z"/></g><g class="cls-1"><path class="cls-3" d="M49.59,76.09l-3,1.72a.66.66,0,0,1-.58,0l-3-1.72a.21.21,0,0,1-.12-.17v.34a.19.19,0,0,0,.12.17l3,1.72a.6.6,0,0,0,.58,0l3-1.72a.19.19,0,0,0,.12-.16v-.35A.21.21,0,0,1,49.59,76.09Z"/><path class="cls-6" d="M49.59,75.75c.16.09.16.24,0,.34l-3,1.72a.66.66,0,0,1-.58,0l-3-1.72c-.16-.1-.16-.25,0-.34L46,74a.66.66,0,0,1,.58,0Z"/></g><g class="cls-1"><path class="cls-3" d="M56.63,76.78l-2,1.13a.51.51,0,0,1-.48,0l-3.1-1.79A.16.16,0,0,1,51,76v.35a.17.17,0,0,0,.1.14l3.1,1.79a.51.51,0,0,0,.48,0l2-1.13a.17.17,0,0,0,.1-.14v-.35A.17.17,0,0,1,56.63,76.78Z"/><path class="cls-6" d="M56.63,76.5c.14.08.14.2,0,.28l-2,1.13a.51.51,0,0,1-.48,0l-3.1-1.79c-.14-.07-.14-.2,0-.28l1.95-1.13a.51.51,0,0,1,.48,0Z"/></g><g class="cls-1"><path class="cls-3" d="M53.71,78.47l-3,1.72a.66.66,0,0,1-.58,0l-3-1.72a.21.21,0,0,1-.12-.17v.34a.2.2,0,0,0,.12.17l3,1.72a.6.6,0,0,0,.58,0l3-1.72a.19.19,0,0,0,.12-.16V78.3A.21.21,0,0,1,53.71,78.47Z"/><path class="cls-6" d="M53.71,78.13c.16.09.16.24,0,.34l-3,1.72a.66.66,0,0,1-.58,0l-3-1.72c-.16-.1-.16-.25,0-.34l3-1.72a.66.66,0,0,1,.58,0Z"/></g><g class="cls-1"><path class="cls-3" d="M60.68,79.12l-2,1.13a.53.53,0,0,1-.49,0l-3.1-1.79a.17.17,0,0,1-.1-.14v.34a.18.18,0,0,0,.1.15l3.1,1.78a.53.53,0,0,0,.49,0l2-1.13a.19.19,0,0,0,.1-.14V79A.19.19,0,0,1,60.68,79.12Z"/><path class="cls-6" d="M60.68,78.83a.16.16,0,0,1,0,.29l-2,1.13a.53.53,0,0,1-.49,0l-3.1-1.79c-.13-.08-.14-.21,0-.28l2-1.14a.6.6,0,0,1,.49,0Z"/></g><g class="cls-1"><path class="cls-3" d="M64.72,81.45l-1.95,1.13a.53.53,0,0,1-.49,0l-3.1-1.79a.19.19,0,0,1-.1-.14V81a.17.17,0,0,0,.1.14l3.1,1.79a.53.53,0,0,0,.49,0l1.95-1.13a.17.17,0,0,0,.1-.14v-.35A.17.17,0,0,1,64.72,81.45Z"/><path class="cls-6" d="M64.72,81.17a.15.15,0,0,1,0,.28l-1.95,1.13a.53.53,0,0,1-.49,0l-3.1-1.79a.15.15,0,0,1,0-.28l2-1.13a.53.53,0,0,1,.49,0Z"/></g><g class="cls-1"><path class="cls-3" d="M68.76,83.78l-2,1.14a.57.57,0,0,1-.48,0l-3.1-1.79a.18.18,0,0,1-.11-.15v.35a.19.19,0,0,0,.1.14l3.11,1.79a.51.51,0,0,0,.48,0l2-1.13a.17.17,0,0,0,.1-.14v-.35A.17.17,0,0,1,68.76,83.78Z"/><path class="cls-6" d="M68.76,83.5c.14.08.14.2,0,.28l-2,1.14a.57.57,0,0,1-.48,0l-3.1-1.79c-.14-.08-.14-.21,0-.29l2-1.13a.53.53,0,0,1,.49,0Z"/></g><g class="cls-1"><path class="cls-3" d="M72.8,86.12l-1.94,1.13a.53.53,0,0,1-.49,0l-3.1-1.79a.17.17,0,0,1-.1-.14v.35a.17.17,0,0,0,.1.14l3.1,1.79a.57.57,0,0,0,.48,0l2-1.14a.17.17,0,0,0,.1-.14V86S72.87,86.08,72.8,86.12Z"/><path class="cls-6" d="M72.8,85.84c.14.07.14.2,0,.28l-1.94,1.13a.53.53,0,0,1-.49,0l-3.1-1.79c-.14-.08-.14-.2,0-.28l2-1.13a.51.51,0,0,1,.48,0Z"/></g><g class="cls-1"><path class="cls-3" d="M76.85,88.45,74.9,89.58a.53.53,0,0,1-.49,0l-3.1-1.79a.16.16,0,0,1-.1-.14V88a.17.17,0,0,0,.1.14l3.1,1.79a.53.53,0,0,0,.49,0l1.94-1.13c.07,0,.11-.09.11-.14v-.35A.19.19,0,0,1,76.85,88.45Z"/><path class="cls-6" d="M76.85,88.17a.15.15,0,0,1,0,.28L74.9,89.58a.53.53,0,0,1-.49,0l-3.1-1.79c-.13-.07-.13-.2,0-.28l2-1.13a.53.53,0,0,1,.49,0Z"/></g><g class="cls-1"><path class="cls-3" d="M80.89,90.78l-2,1.14a.53.53,0,0,1-.49,0l-3.1-1.79a.19.19,0,0,1-.1-.14v.34a.16.16,0,0,0,.1.14l3.1,1.79a.53.53,0,0,0,.49,0l2-1.13A.17.17,0,0,0,81,91v-.35A.15.15,0,0,1,80.89,90.78Z"/><path class="cls-6" d="M80.89,90.5c.13.08.13.21,0,.28l-2,1.14a.53.53,0,0,1-.49,0l-3.1-1.79c-.13-.08-.13-.21,0-.28l2-1.14a.6.6,0,0,1,.49,0Z"/></g><g class="cls-1"><path class="cls-3" d="M84.93,93.12l-2,1.13a.51.51,0,0,1-.48,0l-3.1-1.79a.17.17,0,0,1-.1-.14v.35a.19.19,0,0,0,.1.14L82.5,94.6a.51.51,0,0,0,.48,0l2-1.14a.16.16,0,0,0,.1-.14V93A.17.17,0,0,1,84.93,93.12Z"/><path class="cls-6" d="M84.93,92.84a.15.15,0,0,1,0,.28l-2,1.13a.51.51,0,0,1-.48,0l-3.11-1.79c-.13-.08-.13-.2,0-.28l1.95-1.13a.51.51,0,0,1,.48,0Z"/></g><g class="cls-1"><path class="cls-3" d="M89,95.45l-2,1.14a.57.57,0,0,1-.48,0l-3.1-1.79a.17.17,0,0,1-.1-.15V95a.17.17,0,0,0,.1.14l3.1,1.79a.51.51,0,0,0,.48,0l2-1.13a.17.17,0,0,0,.1-.14v-.35A.17.17,0,0,1,89,95.45Z"/><path class="cls-6" d="M89,95.17c.14.08.14.2,0,.28l-2,1.14a.57.57,0,0,1-.48,0l-3.1-1.79a.15.15,0,0,1,0-.29l2-1.13a.51.51,0,0,1,.48,0Z"/></g><g class="cls-1"><path class="cls-3" d="M93,97.79l-2,1.13a.53.53,0,0,1-.49,0l-3.1-1.79a.17.17,0,0,1-.1-.14v.35a.17.17,0,0,0,.1.14l3.1,1.79a.6.6,0,0,0,.49,0l2-1.14a.19.19,0,0,0,.1-.14v-.34A.19.19,0,0,1,93,97.79Z"/><path class="cls-6" d="M93,97.51c.13.07.13.2,0,.28l-2,1.13a.53.53,0,0,1-.49,0l-3.1-1.79a.15.15,0,0,1,0-.28l2-1.13a.54.54,0,0,1,.48,0Z"/></g><g class="cls-1"><path class="cls-3" d="M97.06,100.12l-2,1.13a.51.51,0,0,1-.48,0l-3.11-1.79a.19.19,0,0,1-.1-.14v.35a.19.19,0,0,0,.1.14l3.1,1.79a.53.53,0,0,0,.49,0l2-1.13a.17.17,0,0,0,.1-.14V100A.17.17,0,0,1,97.06,100.12Z"/><path class="cls-6" d="M97.06,99.84a.15.15,0,0,1,0,.28l-2,1.13a.51.51,0,0,1-.48,0l-3.11-1.79c-.13-.07-.13-.2,0-.28l2-1.13a.53.53,0,0,1,.49,0Z"/></g><g class="cls-1"><path class="cls-3" d="M95.63,102.07v-.35a.23.23,0,0,0,.14.19v.35A.22.22,0,0,1,95.63,102.07Z"/><path class="cls-3" d="M104.37,104.17v.35a.23.23,0,0,1-.14.19v-.35A.23.23,0,0,0,104.37,104.17Z"/><polygon class="cls-3" points="104.23 104.36 104.23 104.71 102.46 105.74 102.46 105.4 104.23 104.36"/><polygon class="cls-3" points="101.8 105.4 101.8 105.74 95.77 102.26 95.77 101.91 101.8 105.4"/><path class="cls-3" d="M102.46,105.4v.34a.7.7,0,0,1-.66,0v-.34A.76.76,0,0,0,102.46,105.4Z"/><path class="cls-6" d="M104.23,104c.18.11.19.28,0,.38l-1.77,1a.76.76,0,0,1-.66,0l-6-3.49c-.19-.1-.19-.27,0-.38l1.77-1a.7.7,0,0,1,.66,0Z"/></g><g class="cls-1"><path class="cls-3" d="M57.74,80.79l-3,1.73a.63.63,0,0,1-.58,0l-3-1.72a.19.19,0,0,1-.12-.17V81a.21.21,0,0,0,.12.17l3,1.72a.66.66,0,0,0,.58,0l3-1.72a.19.19,0,0,0,.12-.16v-.35A.19.19,0,0,1,57.74,80.79Z"/><path class="cls-6" d="M57.74,80.46a.17.17,0,0,1,0,.33l-3,1.73a.63.63,0,0,1-.58,0l-3-1.72a.17.17,0,0,1,0-.33l3-1.72a.66.66,0,0,1,.58,0Z"/></g><g class="cls-1"><path class="cls-3" d="M47.68,79.56,44.87,81.2a.85.85,0,0,1-.73,0l-4.87-2.82a.25.25,0,0,1-.15-.21v.35a.26.26,0,0,0,.16.21l4.87,2.81a.79.79,0,0,0,.73,0l2.81-1.63a.27.27,0,0,0,.15-.21v-.35A.25.25,0,0,1,47.68,79.56Z"/><path class="cls-6" d="M47.68,79.14a.22.22,0,0,1,0,.42L44.87,81.2a.85.85,0,0,1-.73,0l-4.87-2.82c-.21-.11-.2-.3,0-.42l2.81-1.63a.79.79,0,0,1,.73,0Z"/></g><g class="cls-1"><path class="cls-3" d="M51.93,81.93l-3,1.72a.66.66,0,0,1-.58,0l-3-1.72a.21.21,0,0,1-.12-.17v.35a.21.21,0,0,0,.12.17l3,1.72A.66.66,0,0,0,49,84l3-1.72a.21.21,0,0,0,.12-.17v-.35A.21.21,0,0,1,51.93,81.93Z"/><path class="cls-6" d="M51.93,81.59c.16.1.16.25,0,.34l-3,1.72a.66.66,0,0,1-.58,0l-3-1.72a.18.18,0,0,1,0-.34l3-1.72a.66.66,0,0,1,.58,0Z"/></g><g class="cls-1"><path class="cls-3" d="M44.65,82.51l-2.75,1.6a.85.85,0,0,1-.79,0l-5.84-3.37a.27.27,0,0,1-.16-.23v.35a.29.29,0,0,0,.16.23l5.84,3.37a.91.91,0,0,0,.79,0l2.75-1.6a.27.27,0,0,0,.16-.23v-.35A.27.27,0,0,1,44.65,82.51Z"/><path class="cls-6" d="M44.65,82.05c.22.13.22.34,0,.46l-2.75,1.6a.85.85,0,0,1-.79,0l-5.84-3.37c-.22-.13-.22-.33,0-.46L38,78.68a.91.91,0,0,1,.79,0Z"/></g><g class="cls-1"><path class="cls-3" d="M61.78,83.12l-3,1.72a.62.62,0,0,1-.59,0l-3-1.72a.21.21,0,0,1-.13-.17v.35c0,.06,0,.12.13.17l3,1.72a.66.66,0,0,0,.58,0l3-1.72a.21.21,0,0,0,.12-.17V83A.19.19,0,0,1,61.78,83.12Z"/><path class="cls-6" d="M61.77,82.79c.16.09.17.24,0,.33l-3,1.72a.62.62,0,0,1-.59,0l-3-1.72c-.16-.09-.17-.24,0-.33l3-1.72a.6.6,0,0,1,.58,0Z"/></g><g class="cls-1"><path class="cls-3" d="M56,84.28,53,86a.66.66,0,0,1-.58,0l-3-1.72a.21.21,0,0,1-.12-.17v.35a.21.21,0,0,0,.12.17l3,1.72a.66.66,0,0,0,.58,0l3-1.72a.21.21,0,0,0,.12-.17v-.35A.21.21,0,0,1,56,84.28Z"/><path class="cls-6" d="M56,83.94c.16.1.16.25,0,.34L53,86a.66.66,0,0,1-.58,0l-3-1.72c-.16-.09-.16-.24,0-.34l3-1.72a.66.66,0,0,1,.58,0Z"/></g><g class="cls-1"><path class="cls-3" d="M48.94,84.8l-3,1.72a.6.6,0,0,1-.58,0l-3-1.72a.19.19,0,0,1-.12-.17V85a.21.21,0,0,0,.12.17l3,1.72a.66.66,0,0,0,.58,0l3-1.72a.21.21,0,0,0,.12-.17v-.35A.19.19,0,0,1,48.94,84.8Z"/><path class="cls-6" d="M48.94,84.46c.16.1.16.25,0,.34l-3,1.72a.6.6,0,0,1-.58,0l-3-1.72a.17.17,0,0,1,0-.33l3-1.72a.6.6,0,0,1,.58,0Z"/></g><g class="cls-1"><path class="cls-3" d="M38.87,83.61,36,85.28a.76.76,0,0,1-.66,0l-4-2.32a.23.23,0,0,1-.14-.19v.35a.23.23,0,0,0,.14.19l4,2.31a.7.7,0,0,0,.66,0L38.87,84a.22.22,0,0,0,.13-.19v-.35A.29.29,0,0,1,38.87,83.61Z"/><path class="cls-6" d="M38.87,83.22a.21.21,0,0,1,0,.39L36,85.28a.76.76,0,0,1-.66,0l-4-2.32a.2.2,0,0,1,0-.38l2.87-1.67a.72.72,0,0,1,.67,0Z"/></g><g class="cls-1"><path class="cls-3" d="M43,86l-3,1.71a.63.63,0,0,1-.58,0l-3-1.72a.21.21,0,0,1-.12-.17v.34a.19.19,0,0,0,.12.17l3,1.72A.6.6,0,0,0,40,88l3-1.72a.2.2,0,0,0,.12-.17v-.34A.21.21,0,0,1,43,86Z"/><path class="cls-6" d="M43,85.62c.16.09.16.24,0,.34l-3,1.71a.63.63,0,0,1-.58,0l-3-1.72c-.16-.1-.16-.25,0-.34l3-1.72a.66.66,0,0,1,.58,0Z"/></g><g class="cls-1"><path class="cls-3" d="M33.89,85.21l-3,1.72a.64.64,0,0,1-.57,0l-3-1.72a.2.2,0,0,1-.12-.17v.35c0,.06,0,.12.13.17l3,1.72a.66.66,0,0,0,.58,0l3-1.72a.21.21,0,0,0,.12-.17v-.34A.19.19,0,0,1,33.89,85.21Z"/><path class="cls-6" d="M33.88,84.88a.18.18,0,0,1,0,.33l-3,1.72a.64.64,0,0,1-.57,0l-3-1.72a.18.18,0,0,1,0-.33l3-1.72a.6.6,0,0,1,.58,0Z"/></g><g class="cls-1"><path class="cls-3" d="M38.09,87.64l-3,1.72a.66.66,0,0,1-.58,0l-3-1.72a.21.21,0,0,1-.12-.17v.34a.21.21,0,0,0,.12.18l3,1.71a.63.63,0,0,0,.58,0l3-1.72a.21.21,0,0,0,.12-.17v-.35A.21.21,0,0,1,38.09,87.64Z"/><path class="cls-6" d="M38.08,87.3c.17.1.17.25,0,.34l-3,1.72a.66.66,0,0,1-.58,0l-3-1.72a.18.18,0,0,1,0-.34l3-1.72a.66.66,0,0,1,.58,0Z"/></g><g class="cls-1"><path class="cls-3" d="M65.81,85.45l-3,1.72a.66.66,0,0,1-.58,0l-3-1.72a.21.21,0,0,1-.12-.17v.35a.21.21,0,0,0,.12.17l3,1.72a.66.66,0,0,0,.58,0l3-1.72a.21.21,0,0,0,.12-.17v-.34A.19.19,0,0,1,65.81,85.45Z"/><path class="cls-6" d="M65.8,85.11c.17.1.17.25,0,.34l-3,1.72a.66.66,0,0,1-.58,0l-3-1.72a.17.17,0,0,1,0-.33l3-1.72a.6.6,0,0,1,.58,0Z"/></g><g class="cls-1"><path class="cls-3" d="M60.07,86.63l-3,1.72a.66.66,0,0,1-.58,0l-3-1.72a.21.21,0,0,1-.12-.17v.35a.21.21,0,0,0,.12.17l3,1.72a.66.66,0,0,0,.58,0l3-1.72a.21.21,0,0,0,.12-.17v-.35A.21.21,0,0,1,60.07,86.63Z"/><path class="cls-6" d="M60.07,86.29c.16.1.16.25,0,.34l-3,1.72a.66.66,0,0,1-.58,0l-3-1.72c-.16-.09-.16-.24,0-.34l3-1.72a.66.66,0,0,1,.58,0Z"/></g><g class="cls-1"><path class="cls-3" d="M53,87.14l-3,1.72a.68.68,0,0,1-.59,0l-3-1.72a.2.2,0,0,1-.12-.17v.35a.21.21,0,0,0,.12.17l3,1.72a.66.66,0,0,0,.58,0l3-1.72a.21.21,0,0,0,.12-.17V87A.19.19,0,0,1,53,87.14Z"/><path class="cls-6" d="M53,86.8c.16.1.16.25,0,.34l-3,1.72a.68.68,0,0,1-.59,0l-3-1.72c-.16-.09-.16-.24,0-.33l3-1.72a.63.63,0,0,1,.58,0Z"/></g><g class="cls-1"><path class="cls-3" d="M47,88.28,44,90a.6.6,0,0,1-.58,0l-3-1.72a.19.19,0,0,1-.12-.16v.34a.21.21,0,0,0,.12.17l3,1.72a.66.66,0,0,0,.58,0l3-1.72a.21.21,0,0,0,.12-.17v-.34A.19.19,0,0,1,47,88.28Z"/><path class="cls-6" d="M47,88a.17.17,0,0,1,0,.33L44,90a.6.6,0,0,1-.58,0l-3-1.72a.17.17,0,0,1,0-.33l3-1.72a.6.6,0,0,1,.58,0Z"/></g><g class="cls-1"><path class="cls-3" d="M42.16,90l-3,1.72a.66.66,0,0,1-.58,0l-3-1.72a.21.21,0,0,1-.12-.17v.34a.21.21,0,0,0,.12.18l3,1.71a.63.63,0,0,0,.58,0l3-1.72a.21.21,0,0,0,.12-.17v-.35A.21.21,0,0,1,42.16,90Z"/><path class="cls-6" d="M42.16,89.65c.16.1.16.25,0,.34l-3,1.72a.66.66,0,0,1-.58,0l-3-1.72a.18.18,0,0,1,0-.34l3-1.72a.66.66,0,0,1,.58,0Z"/></g><g class="cls-1"><path class="cls-3" d="M69.84,87.78l-3,1.72a.66.66,0,0,1-.58,0l-3-1.72a.21.21,0,0,1-.12-.17V88a.21.21,0,0,0,.12.17l3,1.72a.66.66,0,0,0,.58,0l3-1.72A.21.21,0,0,0,70,88v-.35A.21.21,0,0,1,69.84,87.78Z"/><path class="cls-6" d="M69.84,87.44c.16.1.16.25,0,.34l-3,1.72a.66.66,0,0,1-.58,0l-3-1.72c-.16-.09-.16-.24,0-.34l3-1.72a.66.66,0,0,1,.58,0Z"/></g><g class="cls-1"><path class="cls-3" d="M64.14,89l-3,1.72a.68.68,0,0,1-.59,0l-3-1.72a.2.2,0,0,1-.12-.17v.35a.21.21,0,0,0,.12.17l3,1.72a.66.66,0,0,0,.58,0l3-1.72a.21.21,0,0,0,.12-.17v-.35A.21.21,0,0,1,64.14,89Z"/><path class="cls-6" d="M64.14,88.64c.16.1.17.25,0,.34l-3,1.72a.68.68,0,0,1-.59,0l-3-1.72c-.16-.09-.16-.24,0-.34l3-1.72a.66.66,0,0,1,.58,0Z"/></g><g class="cls-1"><path class="cls-3" d="M57.05,89.48l-3,1.72a.68.68,0,0,1-.59,0l-3-1.72a.2.2,0,0,1-.12-.17v.35c0,.06,0,.12.12.17l3,1.72a.68.68,0,0,0,.59,0L57,89.83a.21.21,0,0,0,.12-.17v-.35A.22.22,0,0,1,57.05,89.48Z"/><path class="cls-6" d="M57,89.14c.17.1.16.25,0,.34l-3,1.72a.68.68,0,0,1-.59,0l-3-1.72c-.16-.09-.16-.24,0-.34l2.95-1.71a.65.65,0,0,1,.59,0Z"/></g><g class="cls-1"><path class="cls-3" d="M51,90.61l-2.95,1.72a.62.62,0,0,1-.59,0l-3-1.72c-.08,0-.13-.1-.12-.17v.35c0,.06,0,.12.13.17l3,1.72a.68.68,0,0,0,.59,0L51,91a.21.21,0,0,0,.12-.17v-.35A.21.21,0,0,1,51,90.61Z"/><path class="cls-6" d="M51,90.28c.17.09.17.24,0,.33l-2.95,1.72a.62.62,0,0,1-.59,0l-3-1.72c-.17-.09-.17-.24,0-.33l3-1.72a.62.62,0,0,1,.59,0Z"/></g><g class="cls-1"><path class="cls-3" d="M47.13,92.91l-2.88,1.67a.7.7,0,0,1-.66,0l-3.84-2.22a.23.23,0,0,1-.14-.19v.35a.26.26,0,0,0,.14.19l3.84,2.22a.76.76,0,0,0,.66,0l2.88-1.68a.23.23,0,0,0,.14-.19v-.34A.26.26,0,0,1,47.13,92.91Z"/><path class="cls-6" d="M47.13,92.53c.18.1.19.27,0,.38l-2.88,1.67a.7.7,0,0,1-.66,0l-3.84-2.22a.2.2,0,0,1,0-.38l2.89-1.68a.74.74,0,0,1,.65,0Z"/></g><g class="cls-1"><path class="cls-3" d="M61.1,91.82l-3,1.72a.66.66,0,0,1-.58,0l-3-1.72a.21.21,0,0,1-.12-.17V92a.21.21,0,0,0,.12.17l3,1.72a.66.66,0,0,0,.58,0l3-1.72a.21.21,0,0,0,.12-.17v-.35A.21.21,0,0,1,61.1,91.82Z"/><path class="cls-6" d="M61.1,91.48c.16.1.16.25,0,.34l-3,1.72a.66.66,0,0,1-.58,0l-3-1.72c-.16-.09-.16-.24,0-.34l3-1.72a.66.66,0,0,1,.58,0Z"/></g><g class="cls-1"><path class="cls-3" d="M55.05,92.94l-3,1.72a.63.63,0,0,1-.58,0l-3-1.72a.2.2,0,0,1-.12-.17v.35a.21.21,0,0,0,.12.17l3,1.72a.66.66,0,0,0,.58,0l3-1.72a.21.21,0,0,0,.12-.17v-.35A.19.19,0,0,1,55.05,92.94Z"/><path class="cls-6" d="M55.05,92.6c.16.1.16.25,0,.34l-3,1.72a.63.63,0,0,1-.58,0l-3-1.72c-.16-.09-.16-.24,0-.34l3-1.71a.6.6,0,0,1,.58,0Z"/></g><g class="cls-1"><path class="cls-3" d="M73.87,90.11l-3,1.72a.66.66,0,0,1-.58,0l-3-1.72c-.09,0-.13-.11-.13-.17v.35a.19.19,0,0,0,.12.16l3,1.72a.6.6,0,0,0,.58,0l3-1.72a.19.19,0,0,0,.12-.16v-.35A.21.21,0,0,1,73.87,90.11Z"/><path class="cls-6" d="M73.87,89.77c.16.1.16.25,0,.34l-3,1.72a.66.66,0,0,1-.58,0l-3-1.72a.18.18,0,0,1,0-.34l3-1.72a.66.66,0,0,1,.58,0Z"/></g><g class="cls-1"><path class="cls-3" d="M68.21,91.33l-2.95,1.72a.68.68,0,0,1-.59,0l-3-1.72a.2.2,0,0,1-.12-.17v.35a.21.21,0,0,0,.12.17l3,1.72a.68.68,0,0,0,.59,0l2.95-1.72a.21.21,0,0,0,.12-.17v-.35A.2.2,0,0,1,68.21,91.33Z"/><path class="cls-6" d="M68.21,91c.17.1.17.25,0,.34l-2.95,1.72a.68.68,0,0,1-.59,0l-3-1.72c-.16-.09-.16-.24,0-.34l3-1.72a.68.68,0,0,1,.59,0Z"/></g><g class="cls-1"><path class="cls-3" d="M65.15,94.16l-3,1.72a.66.66,0,0,1-.58,0l-3-1.72a.21.21,0,0,1-.12-.17v.35a.21.21,0,0,0,.12.17l3,1.72a.66.66,0,0,0,.58,0l3-1.72a.21.21,0,0,0,.12-.17V94A.21.21,0,0,1,65.15,94.16Z"/><path class="cls-6" d="M65.15,93.82c.16.1.16.25,0,.34l-3,1.72a.66.66,0,0,1-.58,0l-3-1.72c-.16-.09-.16-.24,0-.34l3-1.72a.66.66,0,0,1,.58,0Z"/></g><g class="cls-1"><path class="cls-3" d="M59.08,95.27l-3,1.72a.66.66,0,0,1-.58,0l-3-1.72a.21.21,0,0,1-.12-.17v.35a.21.21,0,0,0,.12.17l3,1.72a.66.66,0,0,0,.58,0l3-1.72a.21.21,0,0,0,.12-.17V95.1A.21.21,0,0,1,59.08,95.27Z"/><path class="cls-6" d="M59.08,94.93c.16.1.16.25,0,.34l-3,1.72a.66.66,0,0,1-.58,0l-3-1.72c-.16-.09-.16-.24,0-.34l3-1.72a.66.66,0,0,1,.58,0Z"/></g><g class="cls-1"><path class="cls-3" d="M77.91,92.44l-3,1.72a.66.66,0,0,1-.58,0l-3-1.72a.21.21,0,0,1-.12-.17v.34a.19.19,0,0,0,.12.17l3,1.72a.6.6,0,0,0,.58,0l3-1.72a.18.18,0,0,0,.11-.16v-.35A.21.21,0,0,1,77.91,92.44Z"/><path class="cls-6" d="M77.91,92.1c.16.09.16.24,0,.34l-3,1.72a.66.66,0,0,1-.58,0l-3-1.72c-.16-.1-.16-.25,0-.34l3-1.72a.66.66,0,0,1,.58,0Z"/></g><g class="cls-1"><path class="cls-3" d="M72.28,93.68l-3,1.72a.68.68,0,0,1-.59,0l-3-1.72a.18.18,0,0,1-.12-.17v.35a.21.21,0,0,0,.12.17l3,1.72a.68.68,0,0,0,.59,0l3-1.72a.21.21,0,0,0,.12-.17v-.35A.2.2,0,0,1,72.28,93.68Z"/><path class="cls-6" d="M72.28,93.34c.17.1.17.25,0,.34l-3,1.72a.68.68,0,0,1-.59,0l-3-1.72a.18.18,0,0,1,0-.34l3-1.72a.68.68,0,0,1,.59,0Z"/></g><g class="cls-1"><path class="cls-3" d="M69.2,96.5l-3,1.72a.66.66,0,0,1-.58,0l-3-1.72a.21.21,0,0,1-.12-.17v.35a.21.21,0,0,0,.12.17l3,1.72a.63.63,0,0,0,.58,0l3-1.71a.21.21,0,0,0,.12-.17v-.35A.21.21,0,0,1,69.2,96.5Z"/><path class="cls-6" d="M69.2,96.16a.18.18,0,0,1,0,.34l-3,1.72a.66.66,0,0,1-.58,0l-3-1.72c-.16-.09-.16-.24,0-.34l3-1.72a.66.66,0,0,1,.58,0Z"/></g><g class="cls-1"><path class="cls-3" d="M63.12,97.6l-3,1.72a.68.68,0,0,1-.59,0l-3-1.72c-.08,0-.13-.11-.13-.17v.35c0,.06,0,.12.13.17l3,1.71a.62.62,0,0,0,.59,0l3-1.71a.26.26,0,0,0,.13-.17v-.35A.21.21,0,0,1,63.12,97.6Z"/><path class="cls-6" d="M63.11,97.26c.17.09.17.25,0,.34l-3,1.72a.68.68,0,0,1-.59,0l-3-1.72c-.16-.09-.17-.25,0-.34l3-1.72a.68.68,0,0,1,.59,0Z"/></g><g class="cls-1"><path class="cls-3" d="M81.94,94.77l-3,1.72a.66.66,0,0,1-.58,0l-3-1.72a.21.21,0,0,1-.12-.17v.34a.2.2,0,0,0,.12.17l3,1.72a.63.63,0,0,0,.58,0l3-1.72a.19.19,0,0,0,.12-.16V94.6A.21.21,0,0,1,81.94,94.77Z"/><path class="cls-6" d="M81.94,94.43c.16.09.16.24,0,.34l-3,1.72a.66.66,0,0,1-.58,0l-3-1.72c-.16-.1-.16-.25,0-.34l3-1.72a.66.66,0,0,1,.58,0Z"/></g><g class="cls-1"><path class="cls-3" d="M76.36,96l-3,1.72a.65.65,0,0,1-.59,0l-3-1.72a.2.2,0,0,1-.12-.17v.35c0,.06,0,.12.13.17l3,1.72a.68.68,0,0,0,.59,0l2.95-1.72c.09,0,.13-.11.13-.17v-.35A.19.19,0,0,1,76.36,96Z"/><path class="cls-6" d="M76.35,95.69c.17.1.17.25,0,.34l-3,1.72a.65.65,0,0,1-.59,0l-3-1.72a.18.18,0,0,1,0-.34l3-1.71a.62.62,0,0,1,.59,0Z"/></g><g class="cls-1"><path class="cls-3" d="M73.25,98.84l-3,1.72a.66.66,0,0,1-.58,0l-3-1.72a.21.21,0,0,1-.12-.17V99a.21.21,0,0,0,.12.17l3,1.72a.63.63,0,0,0,.58,0l3-1.71a.21.21,0,0,0,.12-.17v-.35A.21.21,0,0,1,73.25,98.84Z"/><path class="cls-6" d="M73.25,98.5a.18.18,0,0,1,0,.34l-3,1.72a.66.66,0,0,1-.58,0l-3-1.72c-.16-.09-.16-.24,0-.34l3-1.72a.66.66,0,0,1,.58,0Z"/></g><g class="cls-1"><path class="cls-3" d="M67.15,99.93l-3,1.72a.66.66,0,0,1-.58,0l-3-1.72a.21.21,0,0,1-.12-.17v.34a.19.19,0,0,0,.12.17l3,1.72a.6.6,0,0,0,.58,0l3-1.72a.19.19,0,0,0,.12-.16v-.35A.21.21,0,0,1,67.15,99.93Z"/><path class="cls-6" d="M67.15,99.59c.16.09.16.24,0,.34l-3,1.72a.66.66,0,0,1-.58,0l-3-1.72a.18.18,0,0,1,0-.34l2.95-1.72a.68.68,0,0,1,.59,0Z"/></g><g class="cls-1"><path class="cls-3" d="M86,97.09l-3,1.73a.63.63,0,0,1-.58,0l-3-1.72a.19.19,0,0,1-.13-.17v.35c0,.06,0,.12.13.17l3,1.72a.66.66,0,0,0,.58,0l3-1.72a.19.19,0,0,0,.12-.16v-.35A.19.19,0,0,1,86,97.09Z"/><path class="cls-6" d="M86,96.76a.18.18,0,0,1,0,.33l-3,1.73a.63.63,0,0,1-.58,0l-3-1.72c-.17-.09-.17-.24,0-.33l3-1.72A.6.6,0,0,1,83,95Z"/></g><g class="cls-1"><path class="cls-3" d="M80.43,98.38l-3,1.72a.65.65,0,0,1-.59,0l-3-1.72a.2.2,0,0,1-.12-.17v.35a.21.21,0,0,0,.12.17l3,1.72a.68.68,0,0,0,.59,0l3-1.72a.21.21,0,0,0,.12-.17v-.35A.19.19,0,0,1,80.43,98.38Z"/><path class="cls-6" d="M80.42,98c.17.1.17.25,0,.34l-3,1.72a.65.65,0,0,1-.59,0l-3-1.72c-.16-.09-.16-.24,0-.34l3-1.71a.62.62,0,0,1,.59,0Z"/></g><g class="cls-1"><path class="cls-3" d="M77.3,101.18l-3,1.72a.66.66,0,0,1-.58,0l-3-1.72c-.08-.05-.13-.11-.13-.17v.35a.19.19,0,0,0,.12.16l3,1.72a.62.62,0,0,0,.59,0l3-1.72a.19.19,0,0,0,.12-.16V101A.21.21,0,0,1,77.3,101.18Z"/><path class="cls-6" d="M77.31,100.84c.16.09.15.25,0,.34l-3,1.72a.66.66,0,0,1-.58,0l-3-1.72c-.16-.09-.17-.24,0-.34l2.95-1.72a.68.68,0,0,1,.59,0Z"/></g><g class="cls-1"><path class="cls-3" d="M71.18,102.26l-3,1.71a.6.6,0,0,1-.58,0l-3-1.71a.21.21,0,0,1-.12-.17v.34a.19.19,0,0,0,.12.17l3,1.72a.6.6,0,0,0,.58,0l3-1.72a.19.19,0,0,0,.12-.17v-.34A.21.21,0,0,1,71.18,102.26Z"/><path class="cls-6" d="M71.18,101.92c.16.09.16.24,0,.34l-3,1.71a.6.6,0,0,1-.58,0l-3-1.71c-.16-.1-.16-.25,0-.34l3-1.72a.66.66,0,0,1,.58,0Z"/></g><g class="cls-1"><path class="cls-3" d="M67.07,104.83l-2.17,1.26a1.5,1.5,0,0,1-1.37,0L45.08,95.44a.47.47,0,0,1-.28-.4v.35a.49.49,0,0,0,.28.4l18.44,10.65a1.56,1.56,0,0,0,1.38,0l2.17-1.26a.51.51,0,0,0,.28-.4v-.35A.47.47,0,0,1,67.07,104.83Z"/><path class="cls-6" d="M67.06,104c.38.22.39.58,0,.8l-2.17,1.26a1.5,1.5,0,0,1-1.37,0L45.08,95.44a.42.42,0,0,1,0-.79l2.17-1.26a1.5,1.5,0,0,1,1.37,0Z"/></g><g class="cls-1"><path class="cls-3" d="M90,99.42l-3,1.72a.6.6,0,0,1-.58,0l-3-1.72a.2.2,0,0,1-.12-.17v.35c0,.06,0,.12.12.17l3,1.72a.66.66,0,0,0,.58,0l3-1.72a.21.21,0,0,0,.12-.17v-.34A.19.19,0,0,1,90,99.42Z"/><path class="cls-6" d="M90,99.09c.17.09.17.24,0,.33l-3,1.72a.6.6,0,0,1-.58,0l-3-1.72a.18.18,0,0,1,0-.33l3-1.72a.62.62,0,0,1,.59,0Z"/></g><g class="cls-1"><path class="cls-3" d="M84.5,100.73l-3,1.72a.63.63,0,0,1-.58,0l-3-1.72a.2.2,0,0,1-.12-.17v.35a.21.21,0,0,0,.12.17l3,1.72a.68.68,0,0,0,.59,0l3-1.72a.21.21,0,0,0,.12-.17v-.35A.19.19,0,0,1,84.5,100.73Z"/><path class="cls-6" d="M84.5,100.39c.16.1.16.25,0,.34l-3,1.72a.63.63,0,0,1-.58,0l-3-1.72c-.16-.09-.16-.24,0-.34l3-1.71a.62.62,0,0,1,.59,0Z"/></g><g class="cls-1"><path class="cls-3" d="M81.36,103.52l-3,1.72a.66.66,0,0,1-.58,0l-3-1.72a.21.21,0,0,1-.12-.17v.34a.21.21,0,0,0,.12.18l3,1.71a.6.6,0,0,0,.58,0l3-1.72a.21.21,0,0,0,.12-.17v-.34A.21.21,0,0,1,81.36,103.52Z"/><path class="cls-6" d="M81.36,103.18c.16.09.16.24,0,.34l-3,1.72a.66.66,0,0,1-.58,0l-3-1.72c-.16-.1-.16-.25,0-.34l3-1.72a.66.66,0,0,1,.58,0Z"/></g><g class="cls-1"><path class="cls-3" d="M75.21,104.58l-2.95,1.72a.62.62,0,0,1-.59,0l-3-1.72a.19.19,0,0,1-.12-.16v.34a.21.21,0,0,0,.12.17l3,1.72a.66.66,0,0,0,.58,0l3-1.72a.21.21,0,0,0,.12-.17v-.34A.19.19,0,0,1,75.21,104.58Z"/><path class="cls-6" d="M75.21,104.25c.16.09.17.24,0,.33l-2.95,1.72a.62.62,0,0,1-.59,0l-3-1.72c-.16-.09-.16-.24,0-.33l3-1.72a.6.6,0,0,1,.58,0Z"/></g><g class="cls-1"><path class="cls-3" d="M94.2,101.84l-3,1.72a.6.6,0,0,1-.58,0l-3-1.72a.2.2,0,0,1-.12-.17V102a.21.21,0,0,0,.12.17l3,1.72a.66.66,0,0,0,.58,0l3-1.72a.21.21,0,0,0,.12-.17v-.34A.19.19,0,0,1,94.2,101.84Z"/><path class="cls-6" d="M94.2,101.51a.17.17,0,0,1,0,.33l-3,1.72a.6.6,0,0,1-.58,0l-3-1.72a.17.17,0,0,1,0-.33l3-1.72a.63.63,0,0,1,.58,0Z"/></g><g class="cls-1"><path class="cls-3" d="M88.57,103.08l-3,1.72a.63.63,0,0,1-.58,0l-3-1.72a.2.2,0,0,1-.12-.17v.35a.21.21,0,0,0,.12.17l3,1.72a.66.66,0,0,0,.58,0l3-1.72a.21.21,0,0,0,.12-.17v-.34A.19.19,0,0,1,88.57,103.08Z"/><path class="cls-6" d="M88.57,102.74c.16.1.16.25,0,.34l-3,1.72a.63.63,0,0,1-.58,0l-3-1.72c-.16-.09-.16-.24,0-.34L85,101a.62.62,0,0,1,.59,0Z"/></g><g class="cls-1"><path class="cls-3" d="M85.41,105.86l-3,1.72a.66.66,0,0,1-.58,0l-3-1.72a.21.21,0,0,1-.12-.17V106a.19.19,0,0,0,.12.17l3,1.72a.6.6,0,0,0,.58,0l3-1.72a.19.19,0,0,0,.12-.17v-.34A.21.21,0,0,1,85.41,105.86Z"/><path class="cls-6" d="M85.41,105.52c.16.09.16.24,0,.34l-3,1.72a.66.66,0,0,1-.58,0l-3-1.72c-.16-.1-.16-.25,0-.34l3-1.72a.66.66,0,0,1,.58,0Z"/></g><g class="cls-1"><path class="cls-3" d="M79.38,107l-2.95,1.72a.6.6,0,0,1-.58,0l-3-1.72a.19.19,0,0,1-.12-.17v.35a.21.21,0,0,0,.12.17l3,1.72a.68.68,0,0,0,.59,0l2.95-1.72a.21.21,0,0,0,.12-.17v-.35A.2.2,0,0,1,79.38,107Z"/><path class="cls-6" d="M79.39,106.66c.16.09.16.24,0,.33l-2.95,1.72a.6.6,0,0,1-.58,0l-3-1.72c-.16-.09-.17-.24,0-.33l2.95-1.72a.62.62,0,0,1,.59,0Z"/></g><g class="cls-1"><path class="cls-3" d="M72.39,107.49l-2.89,1.67a.68.68,0,0,1-.65,0L65,106.94a.23.23,0,0,1-.14-.19v.35c0,.07,0,.13.14.19l3.85,2.22a.74.74,0,0,0,.65,0l2.89-1.68a.22.22,0,0,0,.13-.19v-.34A.23.23,0,0,1,72.39,107.49Z"/><path class="cls-6" d="M72.39,107.11c.18.1.18.27,0,.38l-2.89,1.67a.68.68,0,0,1-.65,0L65,106.94c-.18-.1-.18-.27,0-.38l2.88-1.67a.7.7,0,0,1,.66,0Z"/></g><g class="cls-1"><path class="cls-3" d="M98.29,104.21l-3,1.72a.63.63,0,0,1-.58,0l-3-1.71a.21.21,0,0,1-.12-.18v.35a.21.21,0,0,0,.12.17l3,1.72a.66.66,0,0,0,.58,0l3-1.72a.19.19,0,0,0,.12-.16V104A.21.21,0,0,1,98.29,104.21Z"/><path class="cls-6" d="M98.29,103.87c.16.09.16.24,0,.34l-3,1.72a.63.63,0,0,1-.58,0l-3-1.71c-.16-.1-.16-.25,0-.34l3-1.72a.66.66,0,0,1,.58,0Z"/></g><g class="cls-1"><path class="cls-3" d="M92.64,105.43l-3,1.72a.63.63,0,0,1-.58,0l-3-1.72a.2.2,0,0,1-.12-.17v.35a.21.21,0,0,0,.12.17l3,1.72a.66.66,0,0,0,.58,0l3-1.72a.21.21,0,0,0,.12-.17v-.34A.19.19,0,0,1,92.64,105.43Z"/><path class="cls-6" d="M92.64,105.1a.17.17,0,0,1,0,.33l-3,1.72a.63.63,0,0,1-.58,0l-3-1.72a.17.17,0,0,1,0-.33l3-1.72a.6.6,0,0,1,.58,0Z"/></g><g class="cls-1"><path class="cls-3" d="M89.46,108.2l-3,1.72a.66.66,0,0,1-.58,0l-3-1.72a.21.21,0,0,1-.12-.17v.34a.19.19,0,0,0,.12.17l3,1.72a.6.6,0,0,0,.58,0l3-1.72a.19.19,0,0,0,.12-.16V108A.21.21,0,0,1,89.46,108.2Z"/><path class="cls-6" d="M89.46,107.86c.16.09.16.24,0,.34l-3,1.72a.66.66,0,0,1-.58,0l-3-1.72c-.16-.1-.16-.25,0-.34l3-1.72a.66.66,0,0,1,.58,0Z"/></g><g class="cls-1"><path class="cls-3" d="M83.41,109.31l-3,1.72a.62.62,0,0,1-.59,0l-3-1.72a.2.2,0,0,1-.13-.17v.35c0,.06,0,.12.13.17l3,1.72a.68.68,0,0,0,.59,0l3-1.72a.21.21,0,0,0,.12-.17v-.34A.19.19,0,0,1,83.41,109.31Z"/><path class="cls-6" d="M83.4,109c.16.09.17.24,0,.33l-3,1.72a.62.62,0,0,1-.59,0l-3-1.72c-.17-.09-.17-.24,0-.33l3-1.72a.62.62,0,0,1,.59,0Z"/></g><g class="cls-1"><path class="cls-3" d="M76.55,109.86l-2.94,1.71a.7.7,0,0,1-.6,0l-3.13-1.81a.21.21,0,0,1-.12-.17v.34a.21.21,0,0,0,.12.18l3.13,1.8a.64.64,0,0,0,.6,0l2.94-1.71a.21.21,0,0,0,.12-.17v-.35A.21.21,0,0,1,76.55,109.86Z"/><path class="cls-6" d="M76.55,109.51a.19.19,0,0,1,0,.35l-2.94,1.71a.7.7,0,0,1-.6,0l-3.13-1.81a.19.19,0,0,1,0-.35l3-1.71a.68.68,0,0,1,.59,0Z"/></g><g class="cls-1"><path class="cls-3" d="M79.05,113.18l-1.4.82a.47.47,0,0,1-.43,0l-3.29-1.91a.15.15,0,0,1-.09-.12v.35a.15.15,0,0,0,.09.12l3.29,1.9a.47.47,0,0,0,.43,0l1.4-.81a.15.15,0,0,0,.09-.12v-.35A.14.14,0,0,1,79.05,113.18Z"/><path class="cls-6" d="M79.05,112.93a.13.13,0,0,1,0,.25l-1.4.82a.47.47,0,0,1-.43,0l-3.29-1.91c-.12-.06-.12-.17,0-.24l1.4-.82a.47.47,0,0,1,.43,0Z"/></g><g class="cls-1"><path class="cls-3" d="M107.6,106.17l-2,1.17a.47.47,0,0,1-.43,0L102.81,106c-.06,0-.09-.08-.09-.13v.35s0,.09.09.13l2.35,1.36a.54.54,0,0,0,.43,0l2-1.17c.06,0,.09-.08.09-.13v-.34A.15.15,0,0,1,107.6,106.17Z"/><path class="cls-6" d="M107.6,105.92a.13.13,0,0,1,0,.25l-2,1.17a.47.47,0,0,1-.43,0L102.81,106a.13.13,0,0,1,0-.25l2-1.17a.5.5,0,0,1,.43,0Z"/></g><g class="cls-1"><path class="cls-3" d="M104.57,107.93l-2.79,1.62a.83.83,0,0,1-.75,0l-5.2-3a.28.28,0,0,1-.16-.22v.34a.29.29,0,0,0,.16.23l5.2,3a.83.83,0,0,0,.75,0l2.79-1.62a.28.28,0,0,0,.16-.22v-.35A.28.28,0,0,1,104.57,107.93Z"/><path class="cls-6" d="M104.57,107.5c.21.12.21.31,0,.43l-2.79,1.62a.83.83,0,0,1-.75,0l-5.2-3a.23.23,0,0,1,0-.44l2.78-1.62a.85.85,0,0,1,.76,0Z"/></g><g class="cls-1"><path class="cls-3" d="M96.71,107.78l-3,1.72a.6.6,0,0,1-.58,0l-3-1.72a.19.19,0,0,1-.12-.17V108a.21.21,0,0,0,.12.17l3,1.72a.66.66,0,0,0,.58,0l3-1.72a.21.21,0,0,0,.12-.17v-.34A.19.19,0,0,1,96.71,107.78Z"/><path class="cls-6" d="M96.71,107.45a.17.17,0,0,1,0,.33l-3,1.72a.6.6,0,0,1-.58,0l-3-1.72a.17.17,0,0,1,0-.33l3-1.72a.6.6,0,0,1,.58,0Z"/></g><g class="cls-1"><path class="cls-3" d="M93.51,110.54l-3,1.72a.68.68,0,0,1-.59,0l-3-1.72c-.09-.05-.13-.11-.13-.17v.34a.2.2,0,0,0,.12.17l3,1.72a.65.65,0,0,0,.59,0l3-1.72a.19.19,0,0,0,.12-.16v-.35A.21.21,0,0,1,93.51,110.54Z"/><path class="cls-6" d="M93.51,110.2c.16.09.16.24,0,.34l-3,1.72a.68.68,0,0,1-.59,0l-3-1.72c-.17-.1-.17-.25,0-.34l3-1.72a.68.68,0,0,1,.59,0Z"/></g><g class="cls-1"><path class="cls-3" d="M100.78,110.13l-3,1.72a.6.6,0,0,1-.58,0l-3-1.72a.19.19,0,0,1-.12-.17v.35a.21.21,0,0,0,.12.17l3,1.72a.66.66,0,0,0,.58,0l3-1.72a.21.21,0,0,0,.12-.17V110A.19.19,0,0,1,100.78,110.13Z"/><path class="cls-6" d="M100.78,109.8a.17.17,0,0,1,0,.33l-3,1.72a.6.6,0,0,1-.58,0l-3-1.72a.17.17,0,0,1,0-.33l3-1.72a.6.6,0,0,1,.58,0Z"/></g><g class="cls-1"><path class="cls-3" d="M96.84,112.42l-3,1.76a.59.59,0,0,1-.52,0L91,112.87a.19.19,0,0,1-.11-.15v.35a.19.19,0,0,0,.11.15l2.26,1.31a.59.59,0,0,0,.52,0l3-1.76a.19.19,0,0,0,.11-.15v-.35A.16.16,0,0,1,96.84,112.42Z"/><path class="cls-6" d="M96.85,112.12c.14.08.14.22,0,.3l-3,1.76a.59.59,0,0,1-.52,0L91,112.87c-.15-.08-.15-.22,0-.3l3-1.76a.59.59,0,0,1,.52,0Z"/></g><g class="cls-1"><path class="cls-3" d="M92.66,114.85,90,116.37a1,1,0,0,1-.92,0l-8.07-4.65a.34.34,0,0,1-.19-.27v.34a.33.33,0,0,0,.2.27l8.07,4.66a1,1,0,0,0,.92,0l2.62-1.52a.33.33,0,0,0,.19-.27v-.34A.31.31,0,0,1,92.66,114.85Z"/><path class="cls-6" d="M92.66,114.32a.28.28,0,0,1,0,.53L90,116.37a1,1,0,0,1-.92,0l-8.07-4.65a.29.29,0,0,1,0-.54l2.62-1.52a1,1,0,0,1,.93,0Z"/></g><g class="cls-1"><path class="cls-3" d="M84.87,114.66l-2.94,1.71a.7.7,0,0,1-.6,0l-3.13-1.81a.21.21,0,0,1-.12-.17v.35a.21.21,0,0,0,.12.17l3.13,1.81a.7.7,0,0,0,.6,0L84.87,115a.2.2,0,0,0,.12-.17v-.34A.21.21,0,0,1,84.87,114.66Z"/><path class="cls-6" d="M84.87,114.31a.19.19,0,0,1,0,.35l-2.94,1.71a.7.7,0,0,1-.6,0l-3.13-1.81a.18.18,0,0,1,0-.34l2.94-1.71a.64.64,0,0,1,.6,0Z"/></g><g class="cls-1"><path class="cls-3" d="M87.32,118l-1.4.81a.47.47,0,0,1-.43,0l-3.3-1.9a.17.17,0,0,1-.08-.13v.35a.15.15,0,0,0,.09.12l3.3,1.91a.5.5,0,0,0,.43,0l1.4-.82a.15.15,0,0,0,.09-.12v-.35S87.38,117.92,87.32,118Z"/><path class="cls-6" d="M87.32,117.71a.13.13,0,0,1,0,.25l-1.4.81a.47.47,0,0,1-.43,0l-3.3-1.9c-.11-.07-.12-.18,0-.25l1.4-.82a.54.54,0,0,1,.43,0Z"/></g><path class="cls-3" d="M54.62,71.09l-1.29.74h-.44v.35a.13.13,0,0,0,.07.11l51.55,29.76a.52.52,0,0,0,.47,0l1.61-.93Z"/><path class="cls-6" d="M104.52,101.72,53,72c-.12-.07-.1-.19,0-.27l1.61-.93,52,30-1.61.93A.52.52,0,0,1,104.52,101.72Z"/><g class="cls-1"><path class="cls-6" d="M120.34,48.57,57.7,12.41a1.14,1.14,0,0,0-1-.12l-1.82.82a1.14,1.14,0,0,1,1,.12L118.52,49.4a3,3,0,0,1,1.33,2.67l-4.91,52.1a1.2,1.2,0,0,1-.63,1.06l1.82-.82a1.21,1.21,0,0,0,.63-1.06l4.91-52.1A3,3,0,0,0,120.34,48.57Z"/><path class="cls-3" d="M118.52,49.4a3,3,0,0,1,1.33,2.67l-4.91,52.1c-.1,1-.84,1.42-1.67.94L50.63,69a3,3,0,0,1-1.33-2.67l4.91-52.11c.1-1,.84-1.42,1.67-.94Z"/><path class="cls-7" d="M117.56,50.14a2.87,2.87,0,0,1,1.27,2.55l-4.28,45.36c-.09,1-.81,1.35-1.6.89l-60.69-35A2.88,2.88,0,0,1,51,61.33L55.27,16c.09-1,.8-1.36,1.59-.9Z"/></g><path class="cls-8" d="M74.18,103.7l-2.4,1.38a3.94,3.94,0,0,1-3.53.15L27.05,81.46l6.15-3.58,41.22,23.79C75.33,102.19,75.21,103.1,74.18,103.7Z"/><path class="cls-9" d="M60.79,26.37l-2.2-1.27A1.31,1.31,0,0,1,58,23.89h0c.06-.47.39-.68.74-.47L61,24.69a1.31,1.31,0,0,1,.55,1.21h0C61.47,26.37,61.14,26.58,60.79,26.37Z"/><path class="cls-9" d="M57.43,55.87,55.22,54.6a1.32,1.32,0,0,1-.54-1.21h0c0-.46.38-.67.74-.47l2.2,1.27a1.32,1.32,0,0,1,.54,1.21h0C58.11,55.87,57.78,56.08,57.43,55.87Z"/><path class="cls-10" d="M63.62,59.45l-4.41-2.54a1.35,1.35,0,0,1-.54-1.22h0c0-.46.38-.67.74-.47l4.4,2.55A1.31,1.31,0,0,1,64.36,59h0C64.31,59.44,64,59.66,63.62,59.45Z"/><path class="cls-11" d="M79.52,68.63,65.44,60.5a1.32,1.32,0,0,1-.55-1.21h0c0-.47.38-.68.74-.47L79.72,67a1.33,1.33,0,0,1,.54,1.21h0C80.21,68.63,79.88,68.84,79.52,68.63Z"/><path class="cls-10" d="M69.49,31.39l-6.68-3.85a1.32,1.32,0,0,1-.55-1.21h0c.06-.47.39-.68.74-.48l6.68,3.86a1.31,1.31,0,0,1,.54,1.21h0C70.17,31.39,69.84,31.6,69.49,31.39Z"/><path class="cls-11" d="M91.61,44.17,71.53,32.57A1.32,1.32,0,0,1,71,31.36h0c.06-.46.39-.67.74-.47L91.8,42.48a1.35,1.35,0,0,1,.55,1.21h0C92.29,44.16,92,44.37,91.61,44.17Z"/><path class="cls-9" d="M62.54,30.45l-2.21-1.27A1.32,1.32,0,0,1,59.79,28h0c.05-.46.38-.67.74-.47l2.2,1.27A1.32,1.32,0,0,1,63.27,30h0C63.22,30.45,62.89,30.66,62.54,30.45Z"/><path class="cls-10" d="M71.23,35.47l-6.68-3.85A1.32,1.32,0,0,1,64,30.41h0c0-.47.38-.68.73-.47l6.68,3.85A1.32,1.32,0,0,1,72,35h0C71.91,35.47,71.58,35.68,71.23,35.47Z"/><path class="cls-11" d="M93.35,48.25,73.27,36.65a1.32,1.32,0,0,1-.54-1.21h0c0-.46.38-.67.74-.47L93.55,46.56a1.35,1.35,0,0,1,.54,1.22h0C94,48.24,93.71,48.45,93.35,48.25Z"/><path class="cls-9" d="M62.18,33.58,60,32.31a1.32,1.32,0,0,1-.55-1.21h0c.06-.47.39-.68.74-.48l2.2,1.28a1.32,1.32,0,0,1,.55,1.21h0C62.86,33.57,62.53,33.78,62.18,33.58Z"/><path class="cls-9" d="M61.84,36.54l-2.2-1.27a1.34,1.34,0,0,1-.55-1.21h0c.06-.46.39-.68.74-.47L62,34.86a1.31,1.31,0,0,1,.55,1.21h0C62.53,36.54,62.2,36.75,61.84,36.54Z"/><path class="cls-9" d="M60.48,48.5l-2.2-1.27A1.32,1.32,0,0,1,57.73,46h0c.05-.47.38-.68.74-.47l2.2,1.27A1.3,1.3,0,0,1,61.21,48h0C61.16,48.49,60.83,48.7,60.48,48.5Z"/><path class="cls-9" d="M60.15,51.41l-2.21-1.27a1.34,1.34,0,0,1-.54-1.21h0c.05-.47.38-.68.74-.47l2.2,1.27a1.3,1.3,0,0,1,.54,1.21h0C60.83,51.4,60.5,51.61,60.15,51.41Z"/><path class="cls-9" d="M59.2,59.72,57,58.44a1.3,1.3,0,0,1-.55-1.21h0c.06-.46.39-.67.74-.47L59.39,58a1.32,1.32,0,0,1,.55,1.21h0C59.88,59.71,59.55,59.92,59.2,59.72Z"/><path class="cls-10" d="M65.22,63.19l-4.29-2.47a1.35,1.35,0,0,1-.54-1.22h0c0-.46.38-.67.73-.47l4.29,2.48A1.3,1.3,0,0,1,66,62.72h0C65.9,63.18,65.57,63.39,65.22,63.19Z"/><path class="cls-11" d="M81.83,72.78,67.18,64.32a1.3,1.3,0,0,1-.54-1.21h0c0-.46.38-.67.73-.47L82,71.1a1.3,1.3,0,0,1,.54,1.21h0C82.51,72.77,82.18,73,81.83,72.78Z"/><path class="cls-9" d="M90.62,69l-2.2-1.27a1.3,1.3,0,0,1-.55-1.21h0c.06-.46.39-.67.74-.47l2.2,1.27a1.32,1.32,0,0,1,.55,1.21h0C91.3,69,91,69.21,90.62,69Z"/><path class="cls-9" d="M60.3,38.45l-2.2-1.27A1.35,1.35,0,0,1,57.55,36h0c.06-.47.39-.68.74-.47l2.2,1.27A1.3,1.3,0,0,1,61,38h0C61,38.44,60.66,38.65,60.3,38.45Z"/><path class="cls-10" d="M66.39,42l-4.21-2.44a1.3,1.3,0,0,1-.55-1.21h0c0-.46.38-.67.74-.47l4.21,2.43a1.32,1.32,0,0,1,.55,1.21h0C67.07,42,66.74,42.17,66.39,42Z"/><path class="cls-10" d="M89.05,55.05l-3-1.72a1.34,1.34,0,0,1-.54-1.21h0c0-.47.38-.68.73-.47l3,1.71a1.32,1.32,0,0,1,.54,1.21h0C89.73,55,89.4,55.25,89.05,55.05Z"/><path class="cls-11" d="M75.15,47l-6.86-4a1.3,1.3,0,0,1-.54-1.21h0c0-.46.38-.67.73-.47l6.86,4a1.31,1.31,0,0,1,.54,1.21h0C75.83,47,75.5,47.23,75.15,47Z"/><path class="cls-9" d="M59.93,41.69l-2.2-1.27a1.32,1.32,0,0,1-.55-1.21h0c.06-.46.39-.67.74-.47L60.12,40a1.32,1.32,0,0,1,.55,1.21h0C60.62,41.69,60.29,41.9,59.93,41.69Z"/><path class="cls-9" d="M58.58,53.53l-2.2-1.27a1.31,1.31,0,0,1-.54-1.21h0c0-.47.38-.68.73-.47l2.2,1.27a1.31,1.31,0,0,1,.55,1.21h0C59.27,53.52,58.94,53.74,58.58,53.53Z"/><path class="cls-10" d="M66,45.21l-4.21-2.43a1.32,1.32,0,0,1-.55-1.21h0c.05-.47.38-.68.74-.48l4.21,2.44a1.3,1.3,0,0,1,.55,1.21h0C66.7,45.2,66.37,45.41,66,45.21Z"/><path class="cls-10" d="M65,54.21,62.2,52.6a1.33,1.33,0,0,1-.55-1.22h0c.06-.46.39-.67.74-.47l2.8,1.62a1.32,1.32,0,0,1,.54,1.21h0C65.68,54.2,65.35,54.41,65,54.21Z"/><path class="cls-10" d="M77,61.12l-2.8-1.62a1.32,1.32,0,0,1-.54-1.21h0c0-.46.38-.67.74-.47l2.79,1.62a1.3,1.3,0,0,1,.55,1.21h0C77.64,61.11,77.31,61.32,77,61.12Z"/><path class="cls-2" d="M96.75,66.47,59.62,45a1.32,1.32,0,0,1-.54-1.21h0c.05-.47.38-.68.73-.47L96.94,64.79A1.31,1.31,0,0,1,97.48,66h0C97.43,66.46,97.1,66.68,96.75,66.47Z"/><path class="cls-11" d="M73.22,49.37l-5.3-3.06a1.32,1.32,0,0,1-.54-1.21h0c.05-.47.38-.68.73-.47l5.3,3A1.32,1.32,0,0,1,74,48.89h0C73.9,49.36,73.57,49.57,73.22,49.37Z"/><path class="cls-11" d="M72.19,58.36l-5.29-3a1.32,1.32,0,0,1-.55-1.21h0c.05-.47.38-.68.74-.48l5.29,3.06a1.32,1.32,0,0,1,.55,1.21h0C72.88,58.36,72.55,58.57,72.19,58.36Z"/><path class="cls-2" d="M86.44,66.59,79,62.28a1.35,1.35,0,0,1-.55-1.21h0c.06-.47.39-.68.74-.48l7.48,4.32a1.34,1.34,0,0,1,.54,1.21h0C87.13,66.59,86.8,66.8,86.44,66.59Z"/><path class="cls-2" d="M84.24,52.27l-6.85-4a1.3,1.3,0,0,1-.55-1.21h0c0-.46.38-.67.74-.47l6.85,4A1.31,1.31,0,0,1,85,51.8h0C84.93,52.26,84.6,52.48,84.24,52.27Z"/><path class="cls-10" d="M70.87,38.6,64.2,34.74a1.3,1.3,0,0,1-.55-1.21h0c.05-.46.38-.67.74-.47l6.68,3.86a1.32,1.32,0,0,1,.54,1.21h0C71.56,38.59,71.23,38.8,70.87,38.6Z"/><path class="cls-10" d="M85.23,46.89,78.56,43A1.3,1.3,0,0,1,78,41.82h0c0-.46.38-.67.74-.47l6.68,3.86A1.32,1.32,0,0,1,86,46.42h0C85.92,46.88,85.59,47.09,85.23,46.89Z"/><path class="cls-11" d="M76.3,41.73l-3.38-1.95a1.32,1.32,0,0,1-.55-1.21h0c.06-.47.39-.68.74-.47l3.38,1.95A1.32,1.32,0,0,1,77,41.26h0C77,41.72,76.65,41.93,76.3,41.73Z"/><path class="cls-11" d="M98.4,54.49l-10.91-6.3A1.31,1.31,0,0,1,87,47h0c0-.46.38-.68.73-.47l10.91,6.3A1.3,1.3,0,0,1,99.13,54h0C99.08,54.48,98.75,54.69,98.4,54.49Z"/><path class="cls-9" d="M58.9,62.36l-2.2-1.27a1.32,1.32,0,0,1-.55-1.21h0c.05-.47.38-.68.74-.47l2.2,1.27a1.3,1.3,0,0,1,.54,1.21h0C59.58,62.35,59.25,62.56,58.9,62.36Z"/><path class="cls-10" d="M67.59,67.38l-6.67-3.86a1.3,1.3,0,0,1-.55-1.21h0c.05-.46.38-.67.74-.47l6.67,3.86a1.3,1.3,0,0,1,.55,1.21h0C68.28,67.37,68,67.58,67.59,67.38Z"/><path class="cls-10" d="M82,75.67l-6.68-3.86a1.32,1.32,0,0,1-.54-1.21h0c0-.46.38-.67.74-.47L82.14,74a1.3,1.3,0,0,1,.55,1.21h0C82.64,75.66,82.31,75.87,82,75.67Z"/><path class="cls-11" d="M73,70.51l-3.38-2a1.32,1.32,0,0,1-.55-1.21h0c.06-.47.38-.68.74-.47l3.38,2A1.31,1.31,0,0,1,73.75,70h0C73.7,70.5,73.37,70.72,73,70.51Z"/><path class="cls-11" d="M95.11,83.27,84.21,77a1.3,1.3,0,0,1-.55-1.21h0c.06-.46.39-.67.74-.47l10.91,6.3a1.32,1.32,0,0,1,.54,1.21h0C95.8,83.26,95.47,83.47,95.11,83.27Z"/><g class="cls-1"><path class="cls-12" d="M75.9,39,8.59.14A.71.71,0,0,0,7.87.07L5.66,1.35a.71.71,0,0,1,.72.07L73.7,40.28a2.23,2.23,0,0,1,1,1.74l-.14,50.17a.72.72,0,0,1-.3.64l2.2-1.28a.68.68,0,0,0,.3-.64l.14-50.17A2.23,2.23,0,0,0,75.9,39Z"/><path class="cls-3" d="M74.71,42l0,5.16-.13,45c0,.64-.45.89-1,.57L6.25,53.89a2.16,2.16,0,0,1-1-1.74l.12-45L5.38,2c0-.64.45-.9,1-.58L73.7,40.27A2.26,2.26,0,0,1,74.71,42Z"/><path class="cls-7" d="M73.48,42.2l0,5-.12,43.43c0,.6-.44.85-1,.55L20.49,61.2,7.43,53.66a2.2,2.2,0,0,1-1-1.68L6.59,8.57l0-5c0-.62.44-.87,1-.57l12.9,7.46,52,30A2.14,2.14,0,0,1,73.48,42.2Z"/><path class="cls-11" d="M20.49,10.48V61.2L7.43,53.66a2.2,2.2,0,0,1-1-1.68L6.59,8.57l0-5c0-.62.44-.87,1-.57Z"/><path class="cls-3" d="M74.71,42l0,5.16L5.36,7.15,5.38,2c0-.64.45-.9,1-.58L73.7,40.27A2.26,2.26,0,0,1,74.71,42Z"/></g><path class="cls-9" d="M15.89,10.25a3.14,3.14,0,0,0,1.43,2.46c.78.45,1.42.09,1.42-.81a3.14,3.14,0,0,0-1.42-2.46C16.53,9,15.89,9.35,15.89,10.25Z"/><path class="cls-9" d="M11.9,8a3.15,3.15,0,0,0,1.43,2.46c.79.45,1.43.09,1.43-.81a3.16,3.16,0,0,0-1.43-2.47C12.54,6.68,11.9,7,11.9,8Z"/><path class="cls-9" d="M7.92,5.65A3.17,3.17,0,0,0,9.34,8.11c.79.45,1.43.09,1.43-.82A3.15,3.15,0,0,0,9.34,4.83C8.56,4.38,7.92,4.74,7.92,5.65Z"/><path class="cls-9" d="M70,81,49.88,69.36a1.59,1.59,0,0,1-.65-1.26V62.53c0-.48.29-.71.65-.5L70,73.66a1.58,1.58,0,0,1,.66,1.26v5.56C70.68,81,70.38,81.19,70,81Z"/><path class="cls-13" d="M26.08,27.91c0,.66-.46.92-1,.59a2.31,2.31,0,0,1-1-1.8c0-.66.47-.92,1-.59A2.28,2.28,0,0,1,26.08,27.91Z"/><path class="cls-13" d="M45,39.71,28.43,30.14a1.48,1.48,0,0,1-.6-1.16h0c0-.45.27-.65.6-.46L45,38.09a1.47,1.47,0,0,1,.6,1.16h0C45.62,39.7,45.35,39.9,45,39.71Z"/><path class="cls-13" d="M45,59.66,24.6,47.89a1.45,1.45,0,0,1-.6-1.16h0c0-.44.27-.65.6-.46L45,58a1.47,1.47,0,0,1,.6,1.16h0C45.59,59.65,45.32,59.85,45,59.66Z"/><path class="cls-13" d="M45,63,24.6,51.25a1.45,1.45,0,0,1-.6-1.16h0c0-.44.27-.65.6-.46L45,61.4a1.47,1.47,0,0,1,.6,1.16h0C45.59,63,45.32,63.21,45,63Z"/><path class="cls-13" d="M45,66.53,24.6,54.76A1.45,1.45,0,0,1,24,53.6h0c0-.44.27-.65.6-.45L45,64.91a1.48,1.48,0,0,1,.6,1.16h0C45.59,66.52,45.32,66.72,45,66.53Z"/><path class="cls-13" d="M70.27,71.61,49.89,59.84a1.45,1.45,0,0,1-.61-1.16h0c0-.45.27-.65.61-.46L70.27,70a1.46,1.46,0,0,1,.61,1.16h0C70.88,71.59,70.6,71.8,70.27,71.61Z"/><path class="cls-13" d="M70.27,68.2,49.89,56.44a1.46,1.46,0,0,1-.61-1.16h0c0-.45.27-.65.61-.46L70.27,66.59a1.46,1.46,0,0,1,.61,1.16h0C70.88,68.19,70.6,68.4,70.27,68.2Z"/><path class="cls-13" d="M70.27,54.25,49.89,42.48a1.43,1.43,0,0,1-.61-1.16h0c0-.45.27-.65.61-.46L70.27,52.63a1.46,1.46,0,0,1,.61,1.16h0C70.88,54.23,70.6,54.44,70.27,54.25Z"/><path class="cls-9" d="M35.37,50.29,24.68,44.12a1.62,1.62,0,0,1-.68-1.3v-12c0-.5.3-.73.68-.52l10.69,6.18a1.62,1.62,0,0,1,.68,1.29v12C36.05,50.28,35.74,50.51,35.37,50.29Z"/><path class="cls-13" d="M18,30.37,8.51,24.9a1.43,1.43,0,0,1-.61-1.15V13.09c0-.44.27-.65.61-.45L18,18.11a1.45,1.45,0,0,1,.6,1.15V29.92C18.59,30.36,18.32,30.57,18,30.37Z"/><path class="cls-13" d="M18,33.67,8.51,28.19A1.42,1.42,0,0,1,7.9,27v0c0-.44.27-.65.61-.45L18,32.1a1.45,1.45,0,0,1,.6,1.15v0C18.59,33.66,18.32,33.86,18,33.67Z"/><path class="cls-13" d="M18,51.44,8.51,46a1.42,1.42,0,0,1-.61-1.15v0c0-.44.27-.65.61-.45L18,49.87a1.45,1.45,0,0,1,.6,1.15v0C18.59,51.43,18.32,51.63,18,51.44Z"/><path class="cls-13" d="M18,54.76,8.51,49.29a1.43,1.43,0,0,1-.61-1.15v0c0-.45.27-.65.61-.46L18,53.2a1.43,1.43,0,0,1,.6,1.15v0C18.59,54.75,18.32,55,18,54.76Z"/><path class="cls-13" d="M18,58.09,8.51,52.61a1.42,1.42,0,0,1-.61-1.15v0c0-.44.27-.65.61-.45L18,56.52a1.45,1.45,0,0,1,.6,1.15v0C18.59,58.08,18.32,58.28,18,58.09Z"/><path class="cls-9" d="M70,63.79,49.88,52.17a1.59,1.59,0,0,1-.65-1.26V45.34c0-.48.29-.7.65-.49L70,56.47a1.6,1.6,0,0,1,.66,1.26V63.3C70.68,63.78,70.38,64,70,63.79Z"/></g></g></g></svg>